<svg width="299" height="98" viewBox="0 0 299 98" fill="none" xmlns="http://www.w3.org/2000/svg">
<g filter="url(#filter0_d_26_175)">
<path fill-rule="evenodd" clip-rule="evenodd" d="M59.3026 22.1274C71.9117 22.1274 82.1333 32.3677 82.1333 45C82.1333 57.6322 71.9117 67.8725 59.3026 67.8725C46.6934 67.8725 36.4718 57.6322 36.4718 45C36.4718 32.3677 46.6934 22.1274 59.3026 22.1274ZM295 67.8725H288.823L266.832 32.9283L266.64 32.9926V67.8725H260.462V22.1167H266.64L288.63 57.0287L288.823 56.9645V22.1167H295V67.8725ZM229.415 40.8759C229.415 36.693 228.28 33.25 226.021 30.5685C223.762 27.8872 220.732 26.5464 216.931 26.5464C213.334 26.5464 210.465 27.8872 208.324 30.5685C206.172 33.25 205.101 36.693 205.101 40.8759V49.0812C205.101 53.3179 206.172 56.7714 208.324 59.4529C210.465 62.1342 213.334 63.4749 216.931 63.4749C220.753 63.4749 223.794 62.1342 226.042 59.4636C228.291 56.7928 229.415 53.3286 229.415 49.0812V40.8759ZM173.433 67.8725H167.223V22.1167H173.433V67.8725ZM235.592 49.0812C235.592 54.6692 233.858 59.3134 230.4 63.003C226.941 66.6928 222.445 68.5268 216.931 68.5375C211.6 68.5268 207.264 66.6928 203.923 63.003C200.594 59.3134 198.924 54.6692 198.924 49.0812V40.9404C198.924 35.3737 200.594 30.7294 203.923 27.0183C207.264 23.3181 211.6 21.4624 216.931 21.4624C222.445 21.4624 226.941 23.3072 230.4 27.0076C233.858 30.708 235.592 35.3523 235.592 40.9404V49.0812ZM115.941 43.1713H124.752C128.253 43.1713 130.769 42.5063 132.3 41.1763C133.842 39.8464 134.602 37.8192 134.602 35.0948C134.602 32.5206 133.863 30.5256 132.364 29.1099C130.865 27.6942 128.542 26.9863 125.384 26.9863H115.941V43.1713ZM115.941 48.0406V67.8725H109.764V22.149H125.384C130.383 22.149 134.195 23.2643 136.829 25.4846C139.462 27.7048 140.79 30.9334 140.79 35.1592C140.79 37.5081 140.169 39.546 138.948 41.2837C137.728 43.0318 135.94 44.4047 133.606 45.4345C136.111 46.2497 137.91 47.5796 139.013 49.4137C140.115 51.2478 140.661 53.5108 140.661 56.2138V60.5148C140.661 61.9412 140.811 63.2176 141.132 64.3545C141.443 65.4807 141.989 66.403 142.76 67.1218V67.8725H136.389C135.576 67.1647 135.051 66.1135 134.826 64.73C134.591 63.3463 134.484 61.9198 134.484 60.461V56.278C134.484 53.8005 133.756 51.8161 132.321 50.3038C130.876 48.8022 128.938 48.0406 126.519 48.0406H115.941ZM21.2379 72.2411C25.3916 72.2411 28.7589 75.6145 28.7589 79.776C28.7589 81.138 28.3984 82.4154 27.7674 83.5181C34.0399 86.9823 41.2489 88.9541 48.9177 88.9541C61.0328 88.9541 72.0017 84.0341 79.9411 76.0802C84.1388 71.8748 87.4895 66.8206 89.716 61.1971C88.1655 64.0368 86.2205 66.6291 83.954 68.8998C77.8489 75.0161 69.414 78.7993 60.0979 78.7993C50.7817 78.7993 42.3468 75.0161 36.2417 68.8998C30.1366 62.7836 26.3603 54.3332 26.3603 45C26.3603 35.6667 30.1366 27.2164 36.2417 21.1002C37.6455 19.6938 39.1729 18.4111 40.8054 17.2692C40.4983 16.7051 40.3237 16.058 40.3237 15.37C40.3237 13.1757 42.0992 11.3971 44.2894 11.3971C45.8118 11.3971 47.1338 12.2566 47.7984 13.5175C51.6093 12.022 55.7578 11.2006 60.0979 11.2006C69.414 11.2006 77.8487 14.9839 83.954 21.1002C86.2202 23.3706 88.1655 25.9632 89.716 28.8028C87.4898 23.1794 84.1388 18.1254 79.9411 13.9198C72.0017 5.9659 61.0328 1.04594 48.9177 1.04594C36.8024 1.04594 25.8337 5.9659 17.8944 13.9198C9.95499 21.8739 5.04403 32.8626 5.04403 45C5.04403 56.2214 9.24166 66.4603 16.1494 74.2277C17.4887 72.9943 19.2753 72.2411 21.2379 72.2411ZM27.1838 84.3901C25.808 86.1669 23.6563 87.3109 21.2379 87.3109C17.084 87.3109 13.7167 83.9374 13.7167 79.776C13.7167 77.9584 14.359 76.2909 15.4288 74.9895C8.32171 67.0295 4 56.5204 4 45C4 32.574 9.02769 21.3236 17.156 13.1801C25.2844 5.0369 36.514 0 48.9177 0C61.3209 0 72.5511 5.0369 80.6794 13.1801C88.7104 21.226 93.7138 32.3054 93.8325 44.5547C93.8343 44.7027 93.8354 44.8512 93.8354 45C93.8354 45.1487 93.8343 45.2972 93.8325 45.4454C93.7138 57.695 88.7104 68.774 80.6794 76.8199C72.5511 84.9631 61.3209 90 48.9177 90C41.0336 90 33.6242 87.9644 27.1838 84.3901ZM48.1593 14.4992C48.222 14.7793 48.2552 15.0709 48.2552 15.37C48.2552 17.5644 46.4798 19.343 44.2894 19.343C43.1615 19.343 42.1437 18.8714 41.4214 18.1141C39.8322 19.2242 38.3457 20.4715 36.98 21.8399C31.0637 27.767 27.4042 35.9556 27.4042 45C27.4042 54.0446 31.0637 62.233 36.98 68.1601C42.8963 74.0873 51.0698 77.7534 60.0979 77.7534C69.1259 77.7534 77.2993 74.0873 83.2156 68.1601C89.132 62.233 92.7914 54.0446 92.7914 45C92.7914 35.9556 89.132 27.767 83.2156 21.8399C77.2993 15.9129 69.1259 12.2465 60.0979 12.2465C55.8847 12.2465 51.8578 13.0451 48.1593 14.4992ZM59.3026 28.0624C68.6398 28.0624 76.2092 35.6456 76.2092 45C76.2092 54.3543 68.6398 61.9376 59.3026 61.9376C49.9652 61.9376 42.3959 54.3543 42.3959 45C42.3959 35.6456 49.9652 28.0624 59.3026 28.0624Z" fill="white"/>
</g>
<defs>
<filter id="filter0_d_26_175" x="0" y="0" width="299" height="98" filterUnits="userSpaceOnUse" color-interpolation-filters="sRGB">
<feFlood flood-opacity="0" result="BackgroundImageFix"/>
<feColorMatrix in="SourceAlpha" type="matrix" values="0 0 0 0 0 0 0 0 0 0 0 0 0 0 0 0 0 0 127 0" result="hardAlpha"/>
<feOffset dy="4"/>
<feGaussianBlur stdDeviation="2"/>
<feComposite in2="hardAlpha" operator="out"/>
<feColorMatrix type="matrix" values="0 0 0 0 0 0 0 0 0 0 0 0 0 0 0 0 0 0 0.25 0"/>
<feBlend mode="normal" in2="BackgroundImageFix" result="effect1_dropShadow_26_175"/>
<feBlend mode="normal" in="SourceGraphic" in2="effect1_dropShadow_26_175" result="shape"/>
</filter>
</defs>
</svg>
